<svg xmlns="http://www.w3.org/2000/svg" viewBox="0 0 130 165" role="img" aria-label="Columna de Agua">
<defs>
  <linearGradient id="cold" x1="0" y1="0" x2="0.35" y2="1"><stop offset="0" stop-color="#8FE3D8"/><stop offset="100%" stop-color="#3AA6CE"/></linearGradient>
  <linearGradient id="algad" x1="0" y1="1" x2="0.4" y2="0"><stop offset="0" stop-color="#5FC49C"/><stop offset="100%" stop-color="#A8E087"/></linearGradient>
  <linearGradient id="pezd" x1="0" y1="0" x2="0.6" y2="1"><stop offset="0" stop-color="#A8E8DC"/><stop offset="100%" stop-color="#4FB4CE"/></linearGradient>
</defs>
<path d="M31 47c5-7 12-6 17-2 4 3 8 3 11-1v76a14 14 0 0 1-14 14h-1a13 13 0 0 1-13-13Z" fill="url(#cold)"/>
<circle cx="42" cy="72" r="4.4" fill="#fff" opacity=".38"/><circle cx="51" cy="92" r="3" fill="#fff" opacity=".3"/><circle cx="41" cy="108" r="3.6" fill="#fff" opacity=".26"/>
<circle cx="40" cy="30" r="4.6" fill="#6FD6D8" opacity=".85"/><circle cx="53" cy="20" r="3.4" fill="#8FE3D8" opacity=".8"/><circle cx="31" cy="17" r="2.6" fill="#9FE0CC" opacity=".7"/>
<path d="M62 134c-3-26 3-49 15-68 8-13 15-20 20-24-2 12-6 24-11 36-8 19-16 36-24 56Z" fill="url(#algad)"/>
<path d="M60 134c-6-22-4-42 5-60 5-11 10-18 13-22-1 12-4 22-8 33-6 17-9 32-10 49Z" fill="#6FC7B4" opacity=".85"/>
<g transform="translate(88 74) rotate(-40)">
  <path d="M-24 0c0-11 11-20 24-20s22 9 22 20-9 20-22 20S-24 11-24 0Z" fill="url(#pezd)"/>
  <path d="M-22 0-42-16c-3 10-3 22 0 32Z" fill="url(#pezd)"/>
  <circle cx="12" cy="-5" r="3.2" fill="#0B2F3F"/>
</g>
</svg>
